<?xml version="1.0" standalone="yes"?>

<svg version="1.1" viewBox="0.0 0.0 960.0 720.0" fill="none" stroke="none" stroke-linecap="square" stroke-miterlimit="10" xmlns="http://www.w3.org/2000/svg" xmlns:xlink="http://www.w3.org/1999/xlink"><clipPath id="p.0"><path d="m0 0l960.0 0l0 720.0l-960.0 0l0 -720.0z" clip-rule="nonzero"></path></clipPath><g clip-path="url(#p.0)"><path fill="#000000" fill-opacity="0.0" d="m0 0l960.0 0l0 720.0l-960.0 0z" fill-rule="nonzero"></path><path fill="#000000" d="m279.82416 211.70236c10.829834 2.0957947 42.446198 16.941818 64.979004 12.574799c22.532806 -4.3670197 54.846436 -44.19203 70.217834 -38.7769c15.371399 5.4151306 33.53894 55.023193 22.010498 71.267715c-11.528442 16.244537 -64.80533 33.88495 -91.18109 26.199493c-26.375763 -7.685486 -55.894592 -60.2603 -67.07349 -72.31235" fill-rule="nonzero"></path><path stroke="#000000" stroke-width="2.0" stroke-linejoin="round" stroke-linecap="butt" d="m279.82416 211.70236c10.829834 2.0957947 42.446198 16.941818 64.979004 12.574799c22.532806 -4.3670197 54.846436 -44.19203 70.217834 -38.7769c15.371399 5.4151306 33.53894 55.023193 22.010498 71.267715c-11.528442 16.244537 -64.80533 33.88495 -91.18109 26.199493c-26.375763 -7.685486 -55.894592 -60.2603 -67.07349 -72.31235" fill-rule="nonzero"></path><path fill="#000000" d="m596.063 211.70236c-10.829834 2.0957947 -42.446167 16.941818 -64.979004 12.574799c-22.532806 -4.3670197 -54.846466 -44.19203 -70.217834 -38.7769c-15.371399 5.4151306 -33.53894 55.023193 -22.010498 71.267715c11.528412 16.244537 64.80533 33.88495 91.18109 26.199493c26.375793 -7.685486 55.894592 -60.2603 67.07349 -72.31235" fill-rule="nonzero"></path><path stroke="#000000" stroke-width="2.0" stroke-linejoin="round" stroke-linecap="butt" d="m596.063 211.70236c-10.829834 2.0957947 -42.446167 16.941818 -64.979004 12.574799c-22.532806 -4.3670197 -54.846466 -44.19203 -70.217834 -38.7769c-15.371399 5.4151306 -33.53894 55.023193 -22.010498 71.267715c11.528412 16.244537 64.80533 33.88495 91.18109 26.199493c26.375793 -7.685486 55.894592 -60.2603 67.07349 -72.31235" fill-rule="nonzero"></path></g></svg>

