<?xml version="1.0" standalone="yes"?>

<svg version="1.1" viewBox="0.0 0.0 960.0 720.0" fill="none" stroke="none" stroke-linecap="square" stroke-miterlimit="10" xmlns="http://www.w3.org/2000/svg" xmlns:xlink="http://www.w3.org/1999/xlink"><clipPath id="p.0"><path d="m0 0l960.0 0l0 720.0l-960.0 0l0 -720.0z" clip-rule="nonzero"></path></clipPath><g clip-path="url(#p.0)"><path fill="#000000" fill-opacity="0.0" d="m0 0l960.0 0l0 720.0l-960.0 0z" fill-rule="nonzero"></path><path fill="#f1c232" d="m318.3571 348.7143c-43.070435 -8.302734 -49.168396 -14.530182 -52.15222 -46.70343c-2.9838257 -32.173218 5.0599365 -110.79001 34.24933 -146.33595c29.189423 -35.54593 91.07089 -66.161415 140.88715 -66.93963c49.816284 -0.7782135 127.91336 23.740593 158.01053 62.270348c30.097107 38.52974 35.026245 135.43788 22.572144 168.90813c-12.454041 33.470245 -46.702087 27.113312 -97.29657 31.913391c-50.594482 4.8000793 -163.19992 5.18985 -206.27036 -3.112854z" fill-rule="nonzero"></path><path stroke="#f1c232" stroke-width="2.0" stroke-linejoin="round" stroke-linecap="butt" d="m318.3571 348.7143c-43.070435 -8.302734 -49.168396 -14.530182 -52.15222 -46.70343c-2.9838257 -32.173218 5.0599365 -110.79001 34.24933 -146.33595c29.189423 -35.54593 91.07089 -66.161415 140.88715 -66.93963c49.816284 -0.7782135 127.91336 23.740593 158.01053 62.270348c30.097107 38.52974 35.026245 135.43788 22.572144 168.90813c-12.454041 33.470245 -46.702087 27.113312 -97.29657 31.913391c-50.594482 4.8000793 -163.19992 5.18985 -206.27036 -3.112854z" fill-rule="nonzero"></path><path fill="#000000" d="m287.82416 267.70236c10.829834 2.0957947 42.446198 16.941833 64.979004 12.574799c22.532806 -4.3670044 54.846436 -44.19203 70.217834 -38.7769c15.371399 5.415146 33.53894 55.02318 22.010498 71.267715c-11.528442 16.244537 -64.80533 33.88495 -91.18109 26.199493c-26.375763 -7.685486 -55.894592 -60.260284 -67.07349 -72.31235" fill-rule="nonzero"></path><path stroke="#000000" stroke-width="2.0" stroke-linejoin="round" stroke-linecap="butt" d="m287.82416 267.70236c10.829834 2.0957947 42.446198 16.941833 64.979004 12.574799c22.532806 -4.3670044 54.846436 -44.19203 70.217834 -38.7769c15.371399 5.415146 33.53894 55.02318 22.010498 71.267715c-11.528442 16.244537 -64.80533 33.88495 -91.18109 26.199493c-26.375763 -7.685486 -55.894592 -60.260284 -67.07349 -72.31235" fill-rule="nonzero"></path><path fill="#000000" d="m604.063 267.70236c-10.829834 2.0957947 -42.446167 16.941833 -64.979004 12.574799c-22.532776 -4.3670044 -54.846466 -44.19203 -70.217834 -38.7769c-15.371399 5.415146 -33.53894 55.02318 -22.010498 71.267715c11.528412 16.244537 64.80533 33.88495 91.18109 26.199493c26.375793 -7.685486 55.894592 -60.260284 67.07349 -72.31235" fill-rule="nonzero"></path><path stroke="#000000" stroke-width="2.0" stroke-linejoin="round" stroke-linecap="butt" d="m604.063 267.70236c-10.829834 2.0957947 -42.446167 16.941833 -64.979004 12.574799c-22.532776 -4.3670044 -54.846466 -44.19203 -70.217834 -38.7769c-15.371399 5.415146 -33.53894 55.02318 -22.010498 71.267715c11.528412 16.244537 64.80533 33.88495 91.18109 26.199493c26.375793 -7.685486 55.894592 -60.260284 67.07349 -72.31235" fill-rule="nonzero"></path><path fill="#000000" d="m478.7034 178.29396l0 0c0 -23.430786 8.362061 -42.4252 18.677185 -42.4252l0 0c4.953491 0 9.704102 4.4697876 13.206757 12.426056c3.5026245 7.9562683 5.470398 18.747284 5.470398 29.999146l0 0c0 23.430786 -8.362061 42.4252 -18.677155 42.4252l0 0c-10.3151245 0 -18.677185 -18.994415 -18.677185 -42.4252z" fill-rule="nonzero"></path><path stroke="#000000" stroke-width="2.0" stroke-linejoin="round" stroke-linecap="butt" d="m478.7034 178.29396l0 0c0 -23.430786 8.362061 -42.4252 18.677185 -42.4252l0 0c4.953491 0 9.704102 4.4697876 13.206757 12.426056c3.5026245 7.9562683 5.470398 18.747284 5.470398 29.999146l0 0c0 23.430786 -8.362061 42.4252 -18.677155 42.4252l0 0c-10.3151245 0 -18.677185 -18.994415 -18.677185 -42.4252z" fill-rule="nonzero"></path><path fill="#000000" d="m365.49344 178.29396l0 0c0 -23.430786 8.362061 -42.4252 18.677155 -42.4252l0 0c4.953491 0 9.704102 4.4697876 13.206757 12.426056c3.502655 7.9562683 5.4704285 18.747284 5.4704285 29.999146l0 0c0 23.430786 -8.362061 42.4252 -18.677185 42.4252l0 0c-10.315094 0 -18.677155 -18.994415 -18.677155 -42.4252z" fill-rule="nonzero"></path><path stroke="#000000" stroke-width="2.0" stroke-linejoin="round" stroke-linecap="butt" d="m365.49344 178.29396l0 0c0 -23.430786 8.362061 -42.4252 18.677155 -42.4252l0 0c4.953491 0 9.704102 4.4697876 13.206757 12.426056c3.502655 7.9562683 5.4704285 18.747284 5.4704285 29.999146l0 0c0 23.430786 -8.362061 42.4252 -18.677185 42.4252l0 0c-10.315094 0 -18.677155 -18.994415 -18.677155 -42.4252z" fill-rule="nonzero"></path></g></svg>

